<svg xmlns="http://www.w3.org/2000/svg" width="1120" height="1120" preserveAspectRatio="none" style="display: block;" version="1.1" viewBox="0 0 2048 2048"><defs><linearGradient id="f" x1="1032.26" x2="720.912" y1="1984.86" y2="1447.61" gradientUnits="userSpaceOnUse"><stop class="stop0" offset="0" stop-color="rgb(96,162,70)" stop-opacity="1"/><stop class="stop1" offset="1" stop-color="rgb(139,197,77)" stop-opacity="1"/></linearGradient><linearGradient id="e" x1="872.389" x2="924.759" y1="455.006" y2="747.48" gradientUnits="userSpaceOnUse"><stop class="stop0" offset="0" stop-color="rgb(12,137,74)" stop-opacity="1"/><stop class="stop1" offset="1" stop-color="rgb(18,173,91)" stop-opacity="1"/></linearGradient><linearGradient id="d" x1="1636.45" x2="277.319" y1="693.802" y2="221.221" gradientUnits="userSpaceOnUse"><stop class="stop0" offset="0" stop-color="rgb(126,184,70)" stop-opacity="1"/><stop class="stop1" offset="1" stop-color="rgb(178,227,74)" stop-opacity="1"/></linearGradient><linearGradient id="c" x1="1527.91" x2="221.487" y1="1621.6" y2="1024.79" gradientUnits="userSpaceOnUse"><stop class="stop0" offset="0" stop-color="rgb(102,169,74)" stop-opacity="1"/><stop class="stop1" offset="1" stop-color="rgb(145,200,74)" stop-opacity="1"/></linearGradient><linearGradient id="b" x1="1041.45" x2="1034.93" y1="1051.34" y2="1284.08" gradientUnits="userSpaceOnUse"><stop class="stop0" offset="0" stop-color="rgb(8,122,70)" stop-opacity="1"/><stop class="stop1" offset="1" stop-color="rgb(22,192,100)" stop-opacity="1"/></linearGradient><linearGradient id="a" x1="1775.66" x2="47.2424" y1="875.727" y2="956.437" gradientUnits="userSpaceOnUse"><stop class="stop0" offset="0" stop-color="rgb(102,169,75)" stop-opacity="1"/><stop class="stop1" offset="1" stop-color="rgb(167,217,73)" stop-opacity="1"/></linearGradient></defs><path fill="url(#a)" d="M522.016 821.536c5.26 2.448 69.338-7.475 78.685-8.762 55.298-7.748 110.552-15.801 165.76-24.159 168.985-25.326 340.479-52.128 510.539-68.499 74.02-7.694 148.31-12.535 222.7-14.512 38.86-1.136 74.93-2.321 113.99.148 44 2.782 93.67 2.134 136.98 10.816 85.17 8.682 188.52 40.54 257.89 92.101 1.1 12.098 2.84 24.193 3.25 36.26.63 18.278-.92 36.294-2.43 54.494a742.36 742.36 0 0 1-35.56 175.977c-3.32 10.33-11.81 38.57-17.72 46.68-22.7 6.69-153.59-6.01-184.99-8.33-41.43-3-82.9-5.59-124.38-7.77-69.82-3.12-133.64-5.1-203.41-.35-197.91 13.5-395.51 54.46-587.017 103.73-39.618 10.29-79.125 21-118.515 32.13-22.241 6.29-47.072 14.09-69.29 19.55-11.146 2.45-51.09 2.29-66.263 2.95-62.875 2.43-125.796 3.44-188.716 3.04-70.427.03-140.364-.25-210.279-10.55-32.23-4.75-53.751-10.13-82.329-25.87 4.888-6.44 18.169-18.5 24.861-23.52 85.654-64.26 201.534-98.23 303.027-129.05 23.712-7.2 57.646-16.59 80.74-21.51l-.011-.48c-3.126-2.02-56.288-6.54-63.754-7.31-31.607-3.45-63.152-7.46-94.62-12.01-83.4-12.03-165.76-30.4-246.366-54.957-23.506-7.301-55.6732-17.726-78.0878-27.682-2.0164-11.426-1.2021-21.262-2.0814-32.399-2.2561-28.576-2.862-56.061.1405-84.654.633-6.029-.4779-11.155 3.8888-15.624 7.3125 4.272 28.6137 10.278 37.924 12.223 111.8969 23.379 235.8339 10.694 348.6929-.219 24.684-2.387 64.247-6.533 86.751-11.882"/><path fill="url(#b)" d="M983.673 1064.98c118.797-2.79 237.577-6.59 356.317-11.41 142.92-4.92 282.8-7.88 425.19 7.95 19.12 3.25 54.7 7.43 71.78 12.77 23.62 3.86 106.69 29.42 119.14 47.79-22.7 6.69-153.59-6.01-184.99-8.33-41.43-3-82.9-5.59-124.38-7.77-69.82-3.12-133.64-5.1-203.41-.35-197.91 13.5-395.51 54.46-587.017 103.73-39.618 10.29-79.125 21-118.515 32.13-22.241 6.29-47.072 14.09-69.29 19.55-11.146 2.45-51.09 2.29-66.263 2.95-62.875 2.43-125.796 3.44-188.716 3.04-70.427.03-140.364-.25-210.279-10.55-32.23-4.75-53.751-10.13-82.329-25.87 4.888-6.44 18.169-18.5 24.861-23.52 85.654-64.26 201.534-98.23 303.027-129.05 23.712-7.2 57.646-16.59 80.74-21.51 17.354-1.97 52.643 2.06 71.241 3.39 127.88 9.08 254.967 4.61 382.893 5.06"/><path fill="rgb(2,97,62)" d="M983.673 1064.98c118.797-2.79 237.577-6.59 356.317-11.41 142.92-4.92 282.8-7.88 425.19 7.95 19.12 3.25 54.7 7.43 71.78 12.77-4.49 2.14-14.78 3.95-20.03 2.84-10.09 1.48-35.13-3.31-47.85-3.62-36.34-.9-73.12-3.24-109.48-3.98-23.48-.49-47.5.55-71.09.98-30.14.55-60.69 4.06-91.01 3.86-9.34-.07-17.49 1.3-27.11.67-26.82 1.15-53.62 2.8-80.38 4.94-17.16 1.32-29.41 3.47-46.42 1.81-28.42-2.77-59.07-2.69-87.87-3.66l-113.8-4.94c-35.24-1.54-69.67-2.42-104.87-6.47-12.92-1.49-42.295 4.75-53.377-1.74"/><path fill="rgb(0,133,80)" d="M1470.39 1075.04c10.38-2.93 47.64-2.83 60.79-3.66 63.65-4.04 128.6-3.97 192.36-2.25 30.7.83 61.24 4.53 91.82 6.66l1.57 1.34c-10.09 1.48-35.13-3.31-47.85-3.62-36.34-.9-73.12-3.24-109.48-3.98-23.48-.49-47.5.55-71.09.98-30.14.55-60.69 4.06-91.01 3.86-9.34-.07-17.49 1.3-27.11.67"/><path fill="rgb(100,164,68)" d="M1750.67 716.568c85.17 8.682 188.52 40.54 257.89 92.101 1.1 12.098 2.84 24.193 3.25 36.26.63 18.278-.92 36.294-2.43 54.494a742.36 742.36 0 0 1-35.56 175.977c-3.32 10.33-11.81 38.57-17.72 46.68-12.45-18.37-95.52-43.93-119.14-47.79-17.08-5.34-52.66-9.52-71.78-12.77 2.59-2.96 4.12-21.03 4.95-26.38 10.72-69.408 12.07-151.923.49-221.41-2.97-17.374-6.46-34.654-10.48-51.815-3.01-12.695-8.31-29.723-11.01-42.61-.3-1.44.35-1.562 1.54-2.737"/><path fill="url(#c)" d="M120.911 1230.61c28.578 15.74 50.099 21.12 82.329 25.87 69.915 10.3 139.852 10.58 210.279 10.55 62.92.4 125.841-.61 188.716-3.04 15.173-.66 55.117-.5 66.263-2.95 12.698 2.78 65.669-1.24 82.419-1.76l209.801-6.27c94.292-2.82 188.652-3.35 282.972-1.58 22.55.38 45.48-.21 67.95.75 85.71 3.65 172.16 8.26 256.95 21.89 25.16 3.96 50.15 8.95 74.9 14.94 11.53 2.8 23.76 6.74 34.9 9.26 54.69 18.07 100.77 35.31 136.14 83.81-27.38 35.92-61 73.55-91.63 106.93-55.23 60.17-115.72 117.95-180.15 168.23-6.37 4.97-34.03 26.2-40.65 29.25-17.41-21.92-104.13-40.44-133.2-46.74-60.64-12.83-126.48-22.02-187.91-30.68-32.22-4.54-79.31-12.23-111.15-14.28-1.39-2.7-13.07-2.9-16.43-3.27-29.07-3.17-58.234-7.26-87.223-11.07-48.068-6.21-96.102-12.69-144.098-19.44a4592 4592 0 0 1-329.576-55.97c-80.112-17.43-160.208-37.95-235.156-71.77-37.308-16.83-40.588-18.75-61.078-53.15a1063.6 1063.6 0 0 1-55.566-104.98c-6.678-14.25-14.405-29.97-19.802-44.53"/><path fill="rgb(100,164,68)" d="M1678.39 1298.27c54.69 18.07 100.77 35.31 136.14 83.81-27.38 35.92-61 73.55-91.63 106.93-55.23 60.17-115.72 117.95-180.15 168.23-6.37 4.97-34.03 26.2-40.65 29.25-17.41-21.92-104.13-40.44-133.2-46.74 4.23-1.69 25.3-19.28 30.67-23.38 84.07-64.51 158.47-140.72 220.94-226.31 15.79-21.9 30.72-44.4 44.76-67.46 4.18-6.87 8.86-19.03 13.12-24.33"/><path fill="url(#d)" d="M159.331 552.126c8.95-12.547 18.03-25 27.239-37.358 136.407-179.373 344.61-277.572 564.564-307.215 72.447-9.763 130.135-10.905 203.526-10.536 239.87 1.205 497.43 33.841 710.69 149.965 24.18 13.167 61.56 35.75 83.17 52.243-13.82-.568-33.62-6.021-48-8.503-29.79-5.16-59.75-9.35-89.81-12.562a1468 1468 0 0 0-372.27 11.178 2447.8 2447.8 0 0 0-195.04 37.577 2381 2381 0 0 0-61.351 14.907c-1.657.433-24.457 6.874-23.633 6.8-6.067-1.03-86.656 21.526-99.83 24.93-198.74 51.365-409.99 119.842-617.305 95.314-24.644-2.916-58.861-8.89-81.95-16.74"/><path fill="url(#e)" d="M958.416 448.622c-.824.074 21.976-6.367 23.633-6.8a2381 2381 0 0 1 61.351-14.907c64.48-15.16 129.55-27.696 195.04-37.577a1468 1468 0 0 1 372.27-11.178c30.06 3.212 60.02 7.402 89.81 12.562 14.38 2.482 34.18 7.935 48 8.503 1.58 3.346 3.42 7.186 1.81 10.717-9.17 20.144-62.83 44.089-81.54 52.322-77.57 34.132-159.36 62.775-239.49 89.53a9768 9768 0 0 1-287.29 91.276 23217 23217 0 0 1-414.979 121.357c-67.483 19.085-137.291 39.576-205.015 57.109-22.504 5.349-62.067 9.495-86.751 11.882-112.859 10.913-236.796 23.598-348.6929.219-9.3103-1.945-30.6115-7.951-37.924-12.223 140.5849-29.976 270.9339-80.029 403.2409-135.382a7904.7 7904.7 0 0 0 506.527-237.41"/><path fill="url(#f)" d="M421.2 1618.8c37.517 4.72 82.35 5.75 120.076 6.83 123.377 2.68 246.804-1.85 369.653-13.56 34.272-3.28 68.515-6.87 102.721-10.75 16.05-1.87 39.74-5.66 55.02-6.48l1.17-.05c31.84 2.05 78.93 9.74 111.15 14.28 61.43 8.66 127.27 17.85 187.91 30.68 29.07 6.3 115.79 24.82 133.2 46.74-17.94 8.27-49.87 16.92-69.29 21.91-52.51 12.97-105.47 24-158.78 33.08-8.87 1.57-41.22 7.72-48.95 7.61l-6.29 1.41c9.26 4.27 19.36 6.19 29.17 8.86 25.1 6.81 53.6 15.71 74.12 31.99 4.18 3.32 9.52 8.16 9.59 13.97.05 4.57-3.69 8.82-6.83 11.74-43.64 40.57-292.38 62.27-359.076 59.66-176.138-6.9-418.741-111.48-538.893-241.92-3.471-3.76-11.629-11.43-11.408-16.67 3.507-.86 1.665-.75 5.737.67"/><path fill="rgb(0,133,80)" d="M421.2 1618.8c37.517 4.72 82.35 5.75 120.076 6.83 123.377 2.68 246.804-1.85 369.653-13.56 34.272-3.28 68.515-6.87 102.721-10.75 16.05-1.87 39.74-5.66 55.02-6.48l1.17-.05c31.84 2.05 78.93 9.74 111.15 14.28 61.43 8.66 127.27 17.85 187.91 30.68 29.07 6.3 115.79 24.82 133.2 46.74-17.94 8.27-49.87 16.92-69.29 21.91-52.51 12.97-105.47 24-158.78 33.08-8.87 1.57-41.22 7.72-48.95 7.61-21.61.52-49.98-6.45-72.28-10.42-25.7-4.44-51.48-8.43-77.32-11.97-202.886-27.82-408.609-44.6-607.97-94.16-9.292-2.31-40.276-9.34-46.31-13.74"/></svg>